<svg width="1258" height="610" viewBox="0 0 1258 610" fill="none" xmlns="http://www.w3.org/2000/svg">
<rect width="106" height="90" fill="#D9D9D9"/>
<rect x="126" width="108" height="90" fill="#D9D9D9"/>
<rect x="254" width="108" height="90" fill="#D9D9D9"/>
<rect x="382" width="108" height="90" fill="#D9D9D9"/>
<rect x="510" width="108" height="90" fill="#D9D9D9"/>
<rect x="638" width="108" height="90" fill="#D9D9D9"/>
<rect x="766" width="108" height="90" fill="#D9D9D9"/>
<rect x="894" width="108" height="90" fill="#D9D9D9"/>
<rect x="1022" width="108" height="90" fill="#D9D9D9"/>
<rect x="1150" width="108" height="90" fill="#D9D9D9"/>
<rect y="130" width="106" height="90" fill="#D9D9D9"/>
<rect x="126" y="130" width="108" height="90" fill="#D9D9D9"/>
<rect x="254" y="130" width="108" height="90" fill="#D9D9D9"/>
<rect x="382" y="130" width="108" height="90" fill="#D9D9D9"/>
<rect x="510" y="130" width="108" height="90" fill="#D9D9D9"/>
<rect x="638" y="130" width="108" height="90" fill="#D9D9D9"/>
<rect x="766" y="130" width="108" height="90" fill="#D9D9D9"/>
<rect x="894" y="130" width="108" height="90" fill="#D9D9D9"/>
<rect x="1022" y="130" width="108" height="90" fill="#D9D9D9"/>
<rect x="1150" y="130" width="108" height="90" fill="#D9D9D9"/>
<rect y="260" width="106" height="90" fill="#D9D9D9"/>
<rect x="126" y="260" width="108" height="90" fill="#D9D9D9"/>
<rect x="254" y="260" width="108" height="90" fill="#D9D9D9"/>
<rect x="382" y="260" width="108" height="90" fill="#D9D9D9"/>
<rect x="510" y="260" width="108" height="90" fill="#D9D9D9"/>
<rect x="638" y="260" width="108" height="90" fill="#D9D9D9"/>
<rect x="766" y="260" width="108" height="90" fill="#D9D9D9"/>
<rect x="1022" y="260" width="108" height="90" fill="#D9D9D9"/>
<rect x="1150" y="260" width="108" height="90" fill="#D9D9D9"/>
<rect y="390" width="106" height="90" fill="#D9D9D9"/>
<rect x="126" y="390" width="108" height="90" fill="#D9D9D9"/>
<rect x="254" y="390" width="108" height="90" fill="#D9D9D9"/>
<rect x="382" y="390" width="108" height="90" fill="#D9D9D9"/>
<rect x="510" y="390" width="108" height="90" fill="#D9D9D9"/>
<rect x="638" y="390" width="108" height="90" fill="#D9D9D9"/>
<rect x="766" y="390" width="108" height="90" fill="#D9D9D9"/>
<rect x="894" y="390" width="108" height="90" fill="#D9D9D9"/>
<rect x="1022" y="390" width="108" height="90" fill="#D9D9D9"/>
<rect x="1150" y="390" width="108" height="90" fill="#D9D9D9"/>
<rect y="520" width="106" height="90" fill="#D9D9D9"/>
<rect x="126" y="520" width="108" height="90" fill="#D9D9D9"/>
<rect x="254" y="520" width="108" height="90" fill="#D9D9D9"/>
<rect x="382" y="520" width="108" height="90" fill="#D9D9D9"/>
<rect x="510" y="520" width="108" height="90" fill="#D9D9D9"/>
<rect x="638" y="520" width="108" height="90" fill="#D9D9D9"/>
<rect x="766" y="520" width="108" height="90" fill="#D9D9D9"/>
<rect x="894" y="520" width="108" height="90" fill="#D9D9D9"/>
<rect x="1022" y="520" width="108" height="90" fill="#D9D9D9"/>
<rect x="1150" y="520" width="108" height="90" fill="#D9D9D9"/>
<ellipse cx="948" cy="304.5" rx="42" ry="41.5" fill="#E90000"/>
</svg>
